<svg xmlns="http://www.w3.org/2000/svg" viewBox="0 0 1260 540" role="img" aria-label="Varied utterances from diverse users, a study of 12 participants, and a checklist of guidelines for an inclusive digital assistant">
  <rect width="1260" height="540" fill="#EFEDE9"/>
  <circle cx="-20" cy="560" r="260" fill="#E8E4DC"/>
  <circle cx="1290" cy="-30" r="230" fill="#E8E4DC"/>
  <circle cx="640" cy="590" r="150" fill="#E8E4DC" opacity=".7"/>

  <g font-family="Inter, system-ui, -apple-system, sans-serif">
    <text x="60" y="76" font-size="13" letter-spacing="1.6" fill="#8A857C">VARIED UTTERANCES</text>
    <text x="490" y="76" font-size="13" letter-spacing="1.6" fill="#8A857C">12 SESSIONS, 1 HOUR EACH</text>
    <text x="930" y="76" font-size="13" letter-spacing="1.6" fill="#8A857C">GUIDELINES</text>

    <!-- 1. the same request, said many ways -->
    <rect x="60" y="100" width="250" height="58" rx="18" fill="#FFFFFF" stroke="#E2DFD9"/>
    <rect x="84" y="122" width="170" height="8" rx="4" fill="#E3E0DA"/>
    <rect x="84" y="138" width="110" height="8" rx="4" fill="#E3E0DA"/>

    <rect x="150" y="176" width="270" height="58" rx="18" fill="#0F0F0F"/>
    <rect x="174" y="198" width="190" height="8" rx="4" fill="#FFFFFF" opacity=".85"/>
    <rect x="174" y="214" width="70" height="8" rx="4" fill="#FFFFFF" opacity=".5"/>

    <rect x="60" y="252" width="210" height="58" rx="18" fill="#FFFFFF" stroke="#B4471F" stroke-width="2"/>
    <rect x="84" y="274" width="140" height="8" rx="4" fill="#E3E0DA"/>
    <rect x="84" y="290" width="90" height="8" rx="4" fill="#E3E0DA"/>

    <rect x="190" y="328" width="230" height="58" rx="18" fill="#FFFFFF" stroke="#E2DFD9"/>
    <rect x="214" y="350" width="160" height="8" rx="4" fill="#E3E0DA"/>
    <rect x="214" y="366" width="100" height="8" rx="4" fill="#E3E0DA"/>

    <rect x="60" y="404" width="300" height="58" rx="18" fill="#FFFFFF" stroke="#E2DFD9"/>
    <rect x="84" y="426" width="220" height="8" rx="4" fill="#E3E0DA"/>
    <rect x="84" y="442" width="130" height="8" rx="4" fill="#E3E0DA"/>

    <path d="M432 290C455 290 462 290 486 290" fill="none" stroke="#B9B4A9" stroke-width="2" stroke-dasharray="5 6" stroke-linecap="round"/>
    <path d="M478 283l10 7-10 7" fill="none" stroke="#B9B4A9" stroke-width="2" stroke-linecap="round" stroke-linejoin="round"/>

    <!-- 2. twelve participants -->
    <rect x="490" y="100" width="370" height="356" rx="22" fill="#FFFFFF" stroke="#E2DFD9" stroke-width="1.5"/>
    <g fill="#ECE9E3">
      <circle cx="552" cy="168" r="17"/><circle cx="620" cy="168" r="17"/><circle cx="688" cy="168" r="17"/><circle cx="756" cy="168" r="17"/><circle cx="824" cy="168" r="0"/>
      <circle cx="552" cy="244" r="17"/><circle cx="620" cy="244" r="17"/><circle cx="688" cy="244" r="17"/><circle cx="756" cy="244" r="17"/>
      <circle cx="552" cy="320" r="17"/><circle cx="620" cy="320" r="17"/><circle cx="756" cy="320" r="17"/>
    </g>
    <circle cx="688" cy="320" r="17" fill="#B4471F"/>
    <g fill="#D8D3C9">
      <path d="M538 196a14 12 0 0128 0z"/><path d="M606 196a14 12 0 0128 0z"/><path d="M674 196a14 12 0 0128 0z"/><path d="M742 196a14 12 0 0128 0z"/>
      <path d="M538 272a14 12 0 0128 0z"/><path d="M606 272a14 12 0 0128 0z"/><path d="M674 272a14 12 0 0128 0z"/><path d="M742 272a14 12 0 0128 0z"/>
      <path d="M538 348a14 12 0 0128 0z"/><path d="M606 348a14 12 0 0128 0z"/><path d="M742 348a14 12 0 0128 0z"/>
    </g>
    <path d="M674 348a14 12 0 0128 0z" fill="#B4471F"/>
    <rect x="522" y="392" width="306" height="10" rx="5" fill="#ECE9E3"/>
    <rect x="522" y="392" width="206" height="10" rx="5" fill="#0F0F0F"/>
    <text x="522" y="432" font-size="12" letter-spacing="1.4" fill="#8A857C">ORACLE DIGITAL ASSISTANT</text>

    <path d="M870 278C892 278 900 290 924 290" fill="none" stroke="#B9B4A9" stroke-width="2" stroke-dasharray="5 6" stroke-linecap="round"/>
    <path d="M916 283l10 7-10 7" fill="none" stroke="#B9B4A9" stroke-width="2" stroke-linecap="round" stroke-linejoin="round"/>

    <!-- 3. guidelines -->
    <rect x="930" y="100" width="270" height="356" rx="22" fill="#FFFFFF" stroke="#E2DFD9" stroke-width="1.5"/>
    <rect x="962" y="132" width="110" height="12" rx="6" fill="#0F0F0F"/>
    <g fill="none" stroke="#B4471F" stroke-width="3" stroke-linecap="round" stroke-linejoin="round">
      <path d="M964 188l7 7 12-14"/><path d="M964 236l7 7 12-14"/><path d="M964 284l7 7 12-14"/><path d="M964 332l7 7 12-14"/><path d="M964 380l7 7 12-14"/>
    </g>
    <rect x="998" y="184" width="164" height="8" rx="4" fill="#E3E0DA"/>
    <rect x="998" y="232" width="140" height="8" rx="4" fill="#E3E0DA"/>
    <rect x="998" y="280" width="156" height="8" rx="4" fill="#E3E0DA"/>
    <rect x="998" y="328" width="120" height="8" rx="4" fill="#E3E0DA"/>
    <rect x="998" y="376" width="150" height="8" rx="4" fill="#E3E0DA"/>
  </g>
</svg>
